<?xml version="1.0" encoding="UTF-8" standalone="no"?>
<!DOCTYPE svg PUBLIC "-//W3C//DTD SVG 1.1//EN" "http://www.w3.org/Graphics/SVG/1.1/DTD/svg11.dtd">
<svg width="100%" height="100%" viewBox="0 0 1024 1024" version="1.1" xmlns="http://www.w3.org/2000/svg" xmlns:xlink="http://www.w3.org/1999/xlink" xml:space="preserve" xmlns:serif="http://www.serif.com/" style="fill-rule:evenodd;clip-rule:evenodd;stroke-linecap:round;stroke-linejoin:round;stroke-miterlimit:1.5;">
    <rect id="REGULAR" x="0" y="0" width="1024" height="1024" style="fill:none;"/>
    <g id="REGULAR1" serif:id="REGULAR">
        <g transform="matrix(1,0,0,1,268.8,0)">
            <path d="M0,1024C-179.2,1024 -268.8,934.4 -268.8,755.2L-268.8,268.8C-268.8,89.6 -179.2,0 0,0L486.4,0C665.6,0 755.2,89.6 755.2,268.8L755.2,755.2C755.2,934.4 665.6,1024 486.4,1024L0,1024Z" style="fill:rgb(153,0,0);fill-rule:nonzero;"/>
        </g>
        <g transform="matrix(1,0,0,1,-68.4633,-23.354)">
            <path d="M362.165,924.272C374.16,814.367 467.388,728.721 580.463,728.721C693.538,728.721 786.767,814.367 798.761,924.272L362.165,924.272Z" style="fill:none;stroke:white;stroke-width:46px;"/>
        </g>
        <g transform="matrix(1,0,0,1,268.8,0)">
            <path d="M486.4,900.918L0,900.918C-50.06,900.918 -89.538,894.798 -114.568,869.768C-139.598,844.738 -145.718,805.26 -145.718,755.2L-145.718,268.8C-145.718,218.74 -139.598,179.262 -114.568,154.232C-89.538,129.202 -50.06,123.082 0,123.082L486.4,123.082C536.46,123.082 575.938,129.202 600.968,154.232C625.998,179.262 632.118,218.74 632.118,268.8L632.118,755.2C632.118,805.26 625.998,844.738 600.968,869.768C575.938,894.798 536.46,900.918 486.4,900.918Z" style="fill:none;fill-rule:nonzero;stroke:white;stroke-width:46px;stroke-linecap:butt;stroke-miterlimit:2;"/>
        </g>
        <g transform="matrix(1,0,0,1,-13.491,6.83955)">
            <circle cx="525.491" cy="505.16" r="112.019" style="fill:none;stroke:white;stroke-width:46px;"/>
        </g>
        <g transform="matrix(0.980546,0,0,1,0.155037,-18.3333)">
            <path d="M250.723,241.333L250.723,578.063C250.723,590.758 240.212,601.063 227.266,601.063C214.32,601.063 203.81,590.758 203.81,578.063L203.81,241.333C203.81,228.639 214.32,218.333 227.266,218.333C240.212,218.333 250.723,228.639 250.723,241.333Z" style="fill:white;"/>
        </g>
        <g transform="matrix(0.980546,0,0,0.510281,0.155037,517.289)">
            <path d="M250.723,263.407L250.723,555.99C250.723,580.867 240.212,601.063 227.266,601.063C214.32,601.063 203.81,580.867 203.81,555.99L203.81,263.407C203.81,238.53 214.32,218.333 227.266,218.333C240.212,218.333 250.723,238.53 250.723,263.407Z" style="fill:white;"/>
        </g>
        <g transform="matrix(0.980546,0,0,0.313036,92.155,131.654)">
            <path d="M250.723,291.807L250.723,527.59C250.723,568.141 240.212,601.063 227.266,601.063C214.32,601.063 203.81,568.141 203.81,527.59L203.81,291.807C203.81,251.256 214.32,218.333 227.266,218.333C240.212,218.333 250.723,251.256 250.723,291.807Z" style="fill:white;"/>
        </g>
        <g transform="matrix(0.980546,0,0,0.887309,92.155,172.037)">
            <path d="M250.723,244.254L250.723,575.142C250.723,589.449 240.212,601.063 227.266,601.063C214.32,601.063 203.81,589.449 203.81,575.142L203.81,244.254C203.81,229.948 214.32,218.333 227.266,218.333C240.212,218.333 250.723,229.948 250.723,244.254Z" style="fill:white;"/>
        </g>
    </g>
</svg>
