<?xml version="1.0" encoding="UTF-8" standalone="no"?>
<!DOCTYPE svg PUBLIC "-//W3C//DTD SVG 1.1//EN" "http://www.w3.org/Graphics/SVG/1.1/DTD/svg11.dtd">
<svg width="100%" height="100%" viewBox="0 0 1024 1024" version="1.1" xmlns="http://www.w3.org/2000/svg" xmlns:xlink="http://www.w3.org/1999/xlink" xml:space="preserve" xmlns:serif="http://www.serif.com/" style="fill-rule:evenodd;clip-rule:evenodd;stroke-linejoin:round;stroke-miterlimit:2;">
    <g transform="matrix(2.13453,0,0,1.32721,-371.619,-186.609)">
        <path d="M402.884,296.085L402.884,756.659C402.884,795.635 383.208,827.279 358.973,827.279L218.009,827.279C193.774,827.279 174.099,795.635 174.099,756.659L174.099,296.085C174.099,257.109 193.774,225.465 218.009,225.465L358.973,225.465C383.208,225.465 402.884,257.109 402.884,296.085Z" style="fill:rgb(153,0,0);"/>
    </g>
    <g transform="matrix(2.13453,0,0,0.401737,164.032,22.0542)">
        <path d="M402.884,458.772L402.884,593.972C402.884,722.738 383.208,827.279 358.973,827.279L218.009,827.279C193.774,827.279 174.099,722.738 174.099,593.972L174.099,458.772C174.099,330.007 193.774,225.465 218.009,225.465L358.973,225.465C383.208,225.465 402.884,330.007 402.884,458.772Z" style="fill:rgb(94,6,0);"/>
    </g>
    <g transform="matrix(2.13453,0,0,0.401737,164.032,372.149)">
        <path d="M402.884,458.772L402.884,593.972C402.884,722.738 383.208,827.279 358.973,827.279L218.009,827.279C193.774,827.279 174.099,722.738 174.099,593.972L174.099,458.772C174.099,330.007 193.774,225.465 218.009,225.465L358.973,225.465C383.208,225.465 402.884,330.007 402.884,458.772Z" style="fill:rgb(94,6,0);"/>
    </g>
</svg>
